<svg xmlns="http://www.w3.org/2000/svg" viewBox="0 0 400 300"><g id="_020" data-name="020"><path d="M236.55,225.36c-11-8.11-15.28-22.86-15.1-36.55.09-6.9,1.34-14.28,6.16-19.22a25.73,25.73,0,0,1,8.34-5.33c9.8-4.26,22.84-4.95,29.64,3.29a30.43,30.43,0,0,1,4.39,8.23q6.13,15.16,11,30.8c3.2,10.23,6.67,26.4-7.8,27.31C261.4,234.64,246.25,232.48,236.55,225.36Z" fill="#fff"/><path d="M268.76,234.55c-10.64,0-23.66-2.27-32.51-8.78-9.94-7.3-15.52-20.77-15.32-37,.12-8.94,2.18-15.34,6.31-19.57a26.66,26.66,0,0,1,8.51-5.45c10-4.35,23.28-5,30.24,3.44a30.84,30.84,0,0,1,4.47,8.36c4.08,10.09,7.79,20.47,11,30.85,3.55,11.36,3.78,19.07.69,23.56-1.84,2.67-4.85,4.16-8.95,4.42C271.8,234.5,270.31,234.55,268.76,234.55Zm-18.57-72.88a36.12,36.12,0,0,0-14,3.06A25.64,25.64,0,0,0,228,170c-3.94,4-5.9,10.2-6,18.87-.2,15.85,5.23,29,14.9,36.12,9.92,7.29,25.25,9.14,36.31,8.44,3.76-.24,6.51-1.58,8.16-4,2.9-4.21,2.63-11.63-.82-22.66-3.24-10.35-6.94-20.71-11-30.77a30,30,0,0,0-4.3-8.09C261.54,163.46,256,161.67,250.19,161.67Z" fill="#231f20"/><path d="M121,173.65,89.13,160.5c11.33-24.22,24.11-38.6,33-44.23,11.25-9.36,39.15-10,64.74-11a78.77,78.77,0,0,1,24.34,2.38c29.85,8.25,57.6,51.47,57.6,51.47L232.58,164s4.67,43.72,8.77,97c0,0-46.85,10.54-120,6.44C121.3,267.48,121.74,181.23,121,173.65Z" fill="#0268f8"/><path d="M190.19,100.94l4,19.2s-4.26,12.75-17.17,11.41a25.86,25.86,0,0,1-18.84-11.73l-4.58-35.3s8.61-6.19,3.18-26a62.54,62.54,0,0,0,33.1.17s8.6,21.07,8.39,31S190.19,100.94,190.19,100.94Z" fill="#fff"/><path d="M178.88,132.16a18.17,18.17,0,0,1-1.92-.1c-13-1.36-19.17-11.88-19.24-12a.7.7,0,0,1-.06-.19l-4.59-35.3a.54.54,0,0,1,.21-.49,11.9,11.9,0,0,0,3.48-5.41c1.3-3.59,2.26-10-.49-20a.52.52,0,0,1,.15-.51.5.5,0,0,1,.52-.11,62.62,62.62,0,0,0,32.79.15.5.5,0,0,1,.61.3c.36.87,8.64,21.29,8.43,31.17-.18,8.69-6.16,11.09-8,11.62l3.9,18.71a.49.49,0,0,1,0,.27C194.63,120.43,190.57,132.16,178.88,132.16Zm-20.21-12.51A25.54,25.54,0,0,0,177.07,131c11.8,1.22,16.08-9.54,16.58-10.93l-4-19.06a.52.52,0,0,1,.42-.61c.3-.05,7.45-1.43,7.64-10.75.19-8.91-7-27.33-8.18-30.34a64.58,64.58,0,0,1-32.05,0c4.54,17.56-2,24.22-3.38,25.42Z" fill="#231f20"/><path d="M160.83,82.92a8.18,8.18,0,0,0-3.35-4,14.54,14.54,0,0,0-4.68-1.62,6,6,0,0,0-2.7-.12,4.82,4.82,0,0,0-1.69.89,6.32,6.32,0,0,0-2.59,3.56,7.62,7.62,0,0,0,.31,3.6,15.18,15.18,0,0,0,1.48,3.67,10,10,0,0,0,13.8,3.41" fill="#fff"/><path d="M156.17,94.3a10.45,10.45,0,0,1-9-5.13,15,15,0,0,1-1.52-3.8,8,8,0,0,1-.33-3.84,6.84,6.84,0,0,1,2.79-3.87,5.57,5.57,0,0,1,1.87-1,6.44,6.44,0,0,1,2.93.12,14.7,14.7,0,0,1,4.85,1.68,8.74,8.74,0,0,1,3.56,4.24.5.5,0,0,1-.29.67.52.52,0,0,1-.67-.29,7.62,7.62,0,0,0-3.14-3.74,14,14,0,0,0-4.52-1.55,5.47,5.47,0,0,0-2.46-.13,4.4,4.4,0,0,0-1.52.8,6,6,0,0,0-2.39,3.26,7.11,7.11,0,0,0,.31,3.35,14.29,14.29,0,0,0,1.42,3.55,9.47,9.47,0,0,0,13.09,3.23.51.51,0,0,1,.71.17.5.5,0,0,1-.17.7A10.55,10.55,0,0,1,156.17,94.3Z" fill="#231f20"/><path d="M191.72,110.54a16.39,16.39,0,0,1-13.36-2.45c-6.22-4.57-6.16-7.72-6.16-7.72s9.54,3.68,17.52.94Z" fill="#231f20"/><path d="M187.64,111.54a16,16,0,0,1-9.57-3.05c-6.36-4.67-6.37-8-6.36-8.13a.47.47,0,0,1,.22-.4.48.48,0,0,1,.45,0c.1,0,9.47,3.58,17.17.93a.46.46,0,0,1,.41,0,.47.47,0,0,1,.24.32l2,9.24a.49.49,0,0,1-.34.58A16.38,16.38,0,0,1,187.64,111.54Zm-14.77-10.41c.39,1.15,1.65,3.52,5.79,6.56a15.94,15.94,0,0,0,12.47,2.48L189.35,102C182.72,104,175.35,102,172.87,101.13Z" fill="#231f20"/><path d="M178.67,72.2s8.17,8.62,6.91,10.57-5.79,1.58-5.79,1.58" fill="#fff"/><path d="M180.68,84.88a8.21,8.21,0,0,1-.93,0,.5.5,0,1,1,.09-1c1.17.09,4.42,0,5.32-1.35.65-1-3.06-6-6.86-10a.49.49,0,0,1,0-.7.5.5,0,0,1,.71,0c2,2.08,8.34,9.06,7,11.18C185,84.65,182.16,84.88,180.68,84.88Z" fill="#231f20"/><ellipse cx="167.58" cy="73.81" rx="1.63" ry="2.3" transform="translate(-15.44 67.9) rotate(-21.92)" fill="#231f20"/><ellipse cx="184.55" cy="71.04" rx="1.63" ry="2.3" transform="translate(-13.18 74.04) rotate(-21.92)" fill="#231f20"/><path d="M179.86,95.73c-3,0-5.76-1.78-8.13-5.23A26.65,26.65,0,0,1,168.55,84a.51.51,0,0,1,.33-.63.51.51,0,0,1,.63.33c0,.13,4.06,12.7,12,10.79s7.83-11.12,7.82-11.51a.5.5,0,0,1,1,0c0,.11.2,10.39-8.58,12.51A8.12,8.12,0,0,1,179.86,95.73Z" fill="#231f20"/><rect x="211.47" y="70.39" width="112.64" height="145.75" rx="5.21" fill="#231f20"/><rect x="218.37" y="79.32" width="98.84" height="127.89" fill="#fff"/><path d="M317.21,207.67H218.37a.46.46,0,0,1-.45-.46V79.32a.45.45,0,0,1,.45-.45h98.84a.46.46,0,0,1,.46.45V207.21A.47.47,0,0,1,317.21,207.67Zm-98.38-.91h97.92v-127H218.83Z" fill="#231f20"/><path d="M293.62,65.24H279.4a11.83,11.83,0,0,0-23.23,0H242a3.41,3.41,0,0,0-3.41,3.4V80.53A3.41,3.41,0,0,0,242,83.94h51.66A3.41,3.41,0,0,0,297,80.53V68.64A3.41,3.41,0,0,0,293.62,65.24Zm-25.83,1.55a3,3,0,1,1,3-3A3,3,0,0,1,267.79,66.79Z" fill="#0268f8"/><path d="M256.45,120.33H232.58a.47.47,0,0,1-.46-.46V94.36a.47.47,0,0,1,.46-.46h23.87a.46.46,0,0,1,.46.46v25.51A.46.46,0,0,1,256.45,120.33ZM233,119.4h23V94.82H233Z" fill="#d1d3d4"/><path d="M262.05,100.6a4.25,4.25,0,0,1-.43.59l-15.43,15.4c-.53.53-.94.54-1.46,0q-4.35-4.47-8.67-9a.85.85,0,0,1,.05-1.39l2.18-2a.82.82,0,0,1,1.3,0l5.13,5.23c.54.54.94.54,1.47,0l12-11.93a.86.86,0,0,1,1.43,0c.67.68,1.35,1.36,2,2a6,6,0,0,1,.42.57Z" fill="#0268f8"/><path d="M304.8,103.57H270.52a.47.47,0,0,1,0-.93H304.8a.47.47,0,0,1,0,.93Z" fill="#d1d3d4"/><path d="M295.68,111.58H270.52a.45.45,0,0,1-.46-.46.46.46,0,0,1,.46-.46h25.16a.47.47,0,0,1,.46.46A.46.46,0,0,1,295.68,111.58Z" fill="#d1d3d4"/><path d="M256.45,155.16H232.58a.47.47,0,0,1-.46-.46V129.2a.46.46,0,0,1,.46-.46h23.87a.45.45,0,0,1,.46.46v25.5A.46.46,0,0,1,256.45,155.16ZM233,154.24h23V129.66H233Z" fill="#d1d3d4"/><path d="M262.05,135.43a4.35,4.35,0,0,1-.43.6l-15.43,15.4a.86.86,0,0,1-1.46,0q-4.35-4.48-8.67-9a.85.85,0,0,1,.05-1.39l2.18-2a.83.83,0,0,1,1.3,0l5.13,5.23c.54.54.94.55,1.47,0l12-11.93a.85.85,0,0,1,1.43,0c.67.68,1.35,1.35,2,2a6,6,0,0,1,.42.57Z" fill="#0268f8"/><path d="M304.8,138.4H270.52a.46.46,0,1,1,0-.92H304.8a.46.46,0,0,1,0,.92Z" fill="#d1d3d4"/><path d="M295.68,146.42H270.52a.46.46,0,0,1-.46-.46.45.45,0,0,1,.46-.46h25.16a.46.46,0,0,1,.46.46A.47.47,0,0,1,295.68,146.42Z" fill="#d1d3d4"/><path d="M256.45,190H232.58a.47.47,0,0,1-.46-.46V164a.47.47,0,0,1,.46-.46h23.87a.46.46,0,0,1,.46.46v25.51A.46.46,0,0,1,256.45,190ZM233,189.08h23V164.49H233Z" fill="#d1d3d4"/><path d="M304.8,173.24H270.52a.47.47,0,0,1,0-.93H304.8a.47.47,0,0,1,0,.93Z" fill="#d1d3d4"/><path d="M295.68,181.25H270.52a.45.45,0,0,1-.46-.46.46.46,0,0,1,.46-.46h25.16a.47.47,0,0,1,.46.46A.46.46,0,0,1,295.68,181.25Z" fill="#d1d3d4"/><path d="M132.43,165.88,117,202.48l34.36-29.67,21.87,7.41s-4.88,32.6-34.75,60.13S77.77,262.6,76,236.83s16.4-75.74,16.4-75.74" fill="#fff"/><path d="M99.68,259.26a27.83,27.83,0,0,1-10.32-1.88c-8.26-3.29-13.19-10.58-13.86-20.51-1.75-25.58,16.24-75.45,16.42-76a.52.52,0,0,1,1,.35c-.18.5-18.09,50.17-16.36,75.53.64,9.51,5.34,16.48,13.21,19.62,13.15,5.23,31.69-1.07,48.39-16.45,27.55-25.39,33.8-55.49,34.51-59.4l-21.16-7.18-34.14,29.48a.52.52,0,0,1-.81-.59L132,165.67a.52.52,0,1,1,1,.41l-14.56,34.57L151,172.42a.52.52,0,0,1,.51-.1l21.86,7.42a.52.52,0,0,1,.35.56c-.05.33-5.25,33.1-34.91,60.43C125.83,252.71,111.67,259.26,99.68,259.26Z" fill="#231f20"/><polygon points="160.15 119.44 199.21 150.48 200.27 152.32 205.46 161.35 195.49 158.34 193.45 157.72 154.39 126.69 160.15 119.44" fill="#231f20"/><path d="M205.46,161.85l-.15,0-12-3.63a.56.56,0,0,1-.17-.09l-39.06-31a.52.52,0,0,1-.18-.34.47.47,0,0,1,.1-.36l5.76-7.25a.51.51,0,0,1,.7-.08l39.06,31a.41.41,0,0,1,.12.14l6.25,10.87a.5.5,0,0,1,0,.56A.49.49,0,0,1,205.46,161.85Zm-11.77-4.58,10.71,3.24-5.57-9.7-38.6-30.67-5.14,6.47Z" fill="#231f20"/><polygon points="200.27 152.32 205.46 161.35 195.49 158.34 200.27 152.32" fill="#0268f8"/><path d="M205.46,161.87a.4.4,0,0,1-.15,0l-10-3a.52.52,0,0,1-.34-.34.55.55,0,0,1,.08-.48l4.78-6a.5.5,0,0,1,.45-.19.53.53,0,0,1,.41.25l5.18,9a.51.51,0,0,1,0,.58A.51.51,0,0,1,205.46,161.87Zm-9.09-3.81,8,2.42-4.16-7.24Z" fill="#231f20"/><rect x="204.6" y="159.61" width="0.97" height="2.97" rx="0.48" transform="translate(-48.63 221.44) rotate(-51.53)" fill="#fff"/><path d="M205.87,162.72a1,1,0,0,1-.62-.22l-1.57-1.25a1,1,0,0,1-.37-.66,1,1,0,0,1,.21-.74,1,1,0,0,1,1.4-.16l1.57,1.25a1,1,0,0,1,.37.67.93.93,0,0,1-.21.73h0A1,1,0,0,1,205.87,162.72Zm0-1Z" fill="#231f20"/><path d="M154.42,110.49h6.79a2.3,2.3,0,0,1,2.3,2.3v23.7a0,0,0,0,1,0,0H152.12a0,0,0,0,1,0,0v-23.7A2.3,2.3,0,0,1,154.42,110.49Z" transform="translate(-37.05 170.22) rotate(-51.53)" fill="#231f20"/><path d="M164.45,136.53a.5.5,0,0,1-.31-.1l-18.56-14.75a2.79,2.79,0,0,1-.45-3.93l4.22-5.31a2.8,2.8,0,0,1,3.93-.45l18.56,14.74a.5.5,0,0,1,.08.7l-7.08,8.92a.48.48,0,0,1-.33.18Zm-12.9-24.16-.21,0a1.79,1.79,0,0,0-1.21.66l-4.22,5.32h0a1.8,1.8,0,0,0,.29,2.53l18.17,14.44,6.46-8.14-18.16-14.43A1.81,1.81,0,0,0,151.55,112.37Zm-6,5.69h0Z" fill="#231f20"/><path d="M157.3,134.37a.5.5,0,0,1-.32-.11c-.39-.31-9.68-7.6-10.9-8.75-1.41-1.33-.72-4.22-.69-4.34a.51.51,0,1,1,1,.24c-.16.67-.41,2.59.4,3.35,1.18,1.11,10.73,8.62,10.83,8.69a.52.52,0,0,1,.09.72A.54.54,0,0,1,157.3,134.37Z" fill="#231f20"/><path d="M148.82,123.86a.5.5,0,0,1-.33-.12.51.51,0,0,1-.07-.72l7.1-8.58a.52.52,0,0,1,.73-.07.51.51,0,0,1,.06.73l-7.1,8.57A.49.49,0,0,1,148.82,123.86Z" fill="#fff"/><path d="M172.25,182.58c1-1.66,1.8-6,1.8-6s8.57.69,10.37-1.94,7.19-21.3,5.39-24.48-8.71-7.6-10.78-8.43-10.52.83-10.52.83l6.64-6.64s10.79,6.36,15.63,5.94,6.23-2.21,3.74-5.11-20.61-11.07-23.65-10.65-16.46,13-16.74,14.8-10.64,36.77-8.43,40.64" fill="#fff"/><path d="M172.25,183.09A.48.48,0,0,1,172,183a.51.51,0,0,1-.19-.7,26.89,26.89,0,0,0,1.74-5.79.52.52,0,0,1,.55-.41c2.3.18,8.57.23,9.9-1.72,1.72-2.5,7-21.06,5.38-23.93-1.75-3.08-8.64-7.46-10.54-8.21-1.58-.64-7.91.4-10.22.85a.5.5,0,0,1-.55-.26.52.52,0,0,1,.09-.61l6.64-6.64a.53.53,0,0,1,.63-.08c.1.06,10.68,6.26,15.32,5.88,2.47-.21,4-.81,4.39-1.68s-.37-1.84-1-2.59c-2.34-2.74-20.3-10.84-23.19-10.47C168.24,127,155,139.29,154.64,141c-.06.37-.44,1.79-1.24,4.72-2.44,8.94-8.91,32.68-7.25,35.58a.52.52,0,0,1-.19.71.53.53,0,0,1-.71-.19c-1.64-2.88,2.47-19.18,7.15-36.37.65-2.39,1.17-4.28,1.22-4.61.33-2.12,14-14.8,17.18-15.23s21.48,7.75,24.11,10.82c1.2,1.4,1.59,2.63,1.18,3.65-.53,1.29-2.3,2.06-5.26,2.32-4.52.4-13.67-4.71-15.59-5.82l-5.19,5.19c2.63-.45,7.53-1.16,9.17-.5,2,.81,9.16,5.33,11,8.66s-3.54,22.29-5.41,25c-1.73,2.52-8.43,2.31-10.39,2.19a24,24,0,0,1-1.77,5.66A.51.51,0,0,1,172.25,183.09Z" fill="#231f20"/><path d="M165.75,150.9s11.34-1.93,13.83-1.24,9.68,8.44,9.68,8.44" fill="#fff"/><path d="M189.26,158.61a.51.51,0,0,1-.38-.16c-2-2.13-7.51-7.76-9.44-8.29s-10.48.72-13.61,1.25a.52.52,0,0,1-.59-.42.5.5,0,0,1,.42-.59c.47-.08,11.49-2,14.06-1.24s9.17,7.78,9.92,8.59a.51.51,0,0,1,0,.72A.47.47,0,0,1,189.26,158.61Z" fill="#231f20"/><path d="M174.05,176.63s1.93-5.81,1.52-9.68" fill="#fff"/><path d="M174.05,177.15a.52.52,0,0,1-.49-.68c0-.06,1.89-5.75,1.49-9.47a.51.51,0,0,1,.46-.56.51.51,0,0,1,.57.45c.42,3.94-1.46,9.66-1.54,9.9A.53.53,0,0,1,174.05,177.15Z" fill="#231f20"/><path d="M167.82,167.23c.56-.14,10.1.13,10.65,0" fill="#fff"/><path d="M177.11,167.78c-.84,0-2.1,0-4,0-2.17,0-4.88-.07-5.21,0a.53.53,0,0,1-.6-.4.5.5,0,0,1,.37-.6,48.72,48.72,0,0,1,5.45,0c2.18,0,4.88.07,5.21,0a.52.52,0,0,1,.6.4.51.51,0,0,1-.36.61A11.42,11.42,0,0,1,177.11,167.78Z" fill="#231f20"/><path d="M164,158.51s8.16-1.8,12-1,10.79,9.13,11.48,9.82" fill="#fff"/><path d="M187.46,167.88a.51.51,0,0,1-.36-.15c-.1-.1-.31-.33-.61-.67-1.83-2.06-7.42-8.33-10.62-9-3.71-.8-11.73.95-11.81,1a.52.52,0,0,1-.61-.4.5.5,0,0,1,.39-.61c.34-.08,8.31-1.81,12.25-1,3.16.68,7.89,5.65,11.17,9.33.28.32.48.54.57.63a.52.52,0,0,1,0,.73A.53.53,0,0,1,187.46,167.88Z" fill="#231f20"/><path d="M302.36,215.75a46.06,46.06,0,0,0,.45-4.8,26.59,26.59,0,0,0-1.53-9.79,6.93,6.93,0,0,0-2.2-3.6c-1.15-.85-3-.88-3.84.28s-.42,2.43-.14,3.66a29.86,29.86,0,0,1,.49,10.15c-.53-4.55-1.13-9.28-3.62-13.13a6.15,6.15,0,0,0-2.14-2.19,2.85,2.85,0,0,0-2.94.06c-1.27.93-1.17,2.81-1,4.38a52.31,52.31,0,0,1-.18,12.06,34.57,34.57,0,0,0-.76-10.49c-.52-2.25-1.54-4.74-3.73-5.45a2.68,2.68,0,0,0-1.48-.1,2.91,2.91,0,0,0-1.93,2.26,9.78,9.78,0,0,0,0,3.1,46,46,0,0,1-.37,12.12,29,29,0,0,0-.4-10.55,8.43,8.43,0,0,0-1.6-3.83,3.4,3.4,0,0,0-3.76-1.1,3.57,3.57,0,0,0-1.82,2.54,13.5,13.5,0,0,0-.11,3.24,29.55,29.55,0,0,1-2.22,11.93c-1.3,3.15-3,6.63-2.67,10.15s3.2,6.76,6.62,8.13a19.3,19.3,0,0,0,10.87.51c11.86-2.35,21.65-8,25.85-19.34" fill="#fff"/><path d="M277.39,236.33a16.54,16.54,0,0,1-6.1-1.07c-3.84-1.54-6.63-5-6.93-8.57-.28-3.27,1.08-6.52,2.28-9.37l.42-1a29.06,29.06,0,0,0,2.18-11.73v-.5a11.06,11.06,0,0,1,.14-2.86,4,4,0,0,1,2.11-2.9,4,4,0,0,1,4.36,1.23,7.71,7.71,0,0,1,1.51,3.19c0-.18,0-.36-.05-.53l0-.25a9,9,0,0,1,0-3,3.41,3.41,0,0,1,2.3-2.65,3.19,3.19,0,0,1,1.77.11c2,.64,3.33,2.6,4.07,5.82,0,.11.05.23.08.34q-.06-.87-.15-1.74c-.18-1.78-.24-3.78,1.23-4.85a3.31,3.31,0,0,1,3.48-.09,6.72,6.72,0,0,1,2.34,2.36,21.58,21.58,0,0,1,2.79,7.26,30.1,30.1,0,0,0-.61-3.88c-.29-1.3-.64-2.88.23-4.08a2.71,2.71,0,0,1,1.81-1.07,3.77,3.77,0,0,1,2.76.67,7.5,7.5,0,0,1,2.38,3.86,26.62,26.62,0,0,1,1.56,10c0,.49-.07.93-.09,1.34a31.17,31.17,0,0,1-.37,3.51.52.52,0,1,1-1-.18,29.66,29.66,0,0,0,.36-3.4c0-.41.05-.85.09-1.35a25.3,25.3,0,0,0-1.51-9.58,6.56,6.56,0,0,0-2-3.36,2.75,2.75,0,0,0-2-.48,1.66,1.66,0,0,0-1.13.65c-.6.83-.32,2.1-.07,3.22a30.11,30.11,0,0,1,.51,10.36.52.52,0,0,1-.51.45h0a.52.52,0,0,1-.51-.46c-.5-4.26-1.07-9.09-3.54-12.92a5.64,5.64,0,0,0-2-2,2.33,2.33,0,0,0-2.38,0c-1,.76-1,2.42-.81,3.92a53.37,53.37,0,0,1-.19,12.18.53.53,0,0,1-.57.44.51.51,0,0,1-.46-.55,33.59,33.59,0,0,0-.75-10.34c-.65-2.84-1.79-4.55-3.38-5.07a2.2,2.2,0,0,0-1.2-.09,2.42,2.42,0,0,0-1.54,1.87,8.37,8.37,0,0,0,0,2.69l0,.25a46.62,46.62,0,0,1-.37,12.26.52.52,0,0,1-.59.42.51.51,0,0,1-.43-.59,28.59,28.59,0,0,0-.39-10.37,8,8,0,0,0-1.49-3.59,2.87,2.87,0,0,0-3.15-1,3,3,0,0,0-1.53,2.17,10.7,10.7,0,0,0-.12,2.61v.5A29.85,29.85,0,0,1,268,216.7l-.42,1c-1.21,2.89-2.47,5.87-2.21,8.89.28,3.21,2.81,6.31,6.3,7.7,2.87,1.15,6.43,1.31,10.58.49,13.2-2.62,21.77-9,25.47-19a.52.52,0,1,1,1,.35c-3.84,10.37-12.67,17-26.24,19.68A25.79,25.79,0,0,1,277.39,236.33Z" fill="#231f20"/><line x1="117" y1="202.48" x2="100.22" y2="215.36" fill="#fff"/><path d="M100.22,215.88a.51.51,0,0,1-.41-.2.52.52,0,0,1,.09-.73l16.79-12.88a.51.51,0,0,1,.72.09.52.52,0,0,1-.09.73l-16.79,12.88A.51.51,0,0,1,100.22,215.88Z" fill="#231f20"/><path d="M146.43,75.31a.51.51,0,0,1-.5-.39c-1.53-6.41-3-12.88-4.38-19.25l-.14-.66a33,33,0,0,1-1.1-8.57c.19-3.13,2.49-3.27,4.54-3.2a10.28,10.28,0,0,1,4.32-7.44c6.14-4.24,12.71-2.32,19.06-.46,4.2,1.23,8.55,2.5,12.64,1.89a27,27,0,0,0,7.74-2.89c.88-.44,1.76-.87,2.65-1.27s10.05-4.36,12.28.14c.62,1.26.11,2.66-.47,3.86a47.75,47.75,0,0,1-4,6.72A18.58,18.58,0,0,1,202.54,42a9.6,9.6,0,0,1,7.15-.18A4.84,4.84,0,0,1,212,43.69c1.08,1.78.61,4.14-1.41,7a65.94,65.94,0,0,1-5.85,7.18c.59-.31,1.18-.68,1.75-1,1.91-1.2,3.89-2.44,6.15-1.85a2.91,2.91,0,0,1,1.92,1.44c.72,1.52-.55,3.18-1,3.73a42.64,42.64,0,0,1-13.45,11.5.52.52,0,0,1-.7-.21.52.52,0,0,1,.21-.7,41.52,41.52,0,0,0,13.12-11.22c.87-1.15,1.15-2,.84-2.66a1.85,1.85,0,0,0-1.24-.88c-1.83-.48-3.53.59-5.34,1.72a13.14,13.14,0,0,1-4.21,2,.51.51,0,0,1-.56-.26.52.52,0,0,1,.1-.61,65.42,65.42,0,0,0,7.38-8.73c1.76-2.51,2.22-4.48,1.37-5.88a3.94,3.94,0,0,0-1.84-1.45,8.63,8.63,0,0,0-6.38.19,26.65,26.65,0,0,0-5.83,3.47.51.51,0,0,1-.7-.74,47.07,47.07,0,0,0,5.76-9.08c.47-1,.9-2.09.47-3-1.46-2.95-7.78-1.06-10.92.35-.88.4-1.75.82-2.62,1.25a27.63,27.63,0,0,1-8,3c-4.32.64-8.78-.66-13.09-1.92-6.41-1.87-12.45-3.64-18.18.32a9.28,9.28,0,0,0-3.92,7.14.48.48,0,0,1-.16.36.57.57,0,0,1-.37.14c-2.67-.11-3.84.06-4,2.21a32.63,32.63,0,0,0,1.07,8.29l.15.67c1.37,6.35,2.84,12.82,4.37,19.22a.51.51,0,0,1-.38.62Z" fill="#231f20"/></g></svg>